<svg width="602" height="114" viewBox="0 0 602 114" fill="none" xmlns="http://www.w3.org/2000/svg">
<path fill-rule="evenodd" clip-rule="evenodd" d="M96.3666 4.59065C101.784 10.0079 101.784 18.7976 96.3666 24.2207C90.9435 29.6379 82.1596 29.6379 76.7365 24.2207C71.3193 18.7976 71.3193 10.008 76.7365 4.59065C82.1596 -0.826603 90.9435 -0.826603 96.3666 4.59065Z" fill="#FF5C00"/>
<path fill-rule="evenodd" clip-rule="evenodd" d="M66.1873 72.6637L73.8035 53.0672C74.1396 52.1899 75.125 51.757 76.0023 52.0931C76.8795 52.4292 77.3125 53.4147 76.9764 54.2919L68.9842 74.8508C68.9557 74.942 68.9216 75.0331 68.8817 75.1186L67.9361 77.5453C67.6 78.4112 67.4861 79.2827 67.5829 80.1314C67.6797 80.9745 67.993 81.8004 68.5171 82.5639C68.95 83.2019 69.4798 83.7145 70.0779 84.0962C70.6362 84.4551 71.2628 84.7 71.9349 84.8254C72.8121 84.8937 73.5071 85.6286 73.5071 86.5287H73.5014L73.5128 108.25H73.5185C73.5185 109.737 74.128 111.087 75.1077 112.067C76.0874 113.046 77.4376 113.656 78.9243 113.656H84.8429V89.7529C84.8429 88.8073 85.6063 88.044 86.5519 88.044C87.4975 88.044 88.2609 88.8073 88.2609 89.7529V113.656H94.1795C95.6662 113.656 97.0163 113.046 97.9961 112.067C98.976 111.087 99.5854 109.737 99.5854 108.25L99.5797 86.6497C99.5683 85.818 100.166 85.0775 101.009 84.9407V84.9464C101.71 84.8325 102.377 84.5648 102.969 84.1774C103.584 83.773 104.131 83.2261 104.581 82.571C105.105 81.8019 105.419 80.9817 105.515 80.1385C105.612 79.2898 105.498 78.4182 105.162 77.5524L104.217 75.1257C104.177 75.0402 104.143 74.9491 104.114 74.8579L96.122 54.299C95.7859 53.4217 96.2188 52.4363 97.0961 52.1002C97.9733 51.7641 98.9588 52.197 99.2949 53.0743L106.911 72.6708H109.047C109.902 72.6708 110.688 72.4999 111.383 72.1695C112.078 71.8391 112.704 71.3378 113.24 70.6827C113.775 70.022 114.14 69.3099 114.322 68.558C114.504 67.8061 114.516 67.0029 114.345 66.1712L114.328 66.0915C111.218 50.9442 107.258 31.7021 91.44 31.7021L81.6592 31.6964C65.8397 31.6964 61.8863 50.9444 58.7714 66.0858L58.7543 66.1655C58.5834 66.9972 58.5948 67.8004 58.7771 68.5523C58.9594 69.3042 59.3239 70.022 59.8594 70.677C60.3949 71.3321 61.0215 71.8334 61.7164 72.1638C62.4114 72.4942 63.1974 72.6651 64.052 72.6651L66.1873 72.6637Z" fill="#FF5C00"/>
<path fill-rule="evenodd" clip-rule="evenodd" d="M160.23 4.06294C165.647 9.48019 165.647 18.2699 160.23 23.693C154.807 29.1102 146.023 29.1102 140.6 23.693C135.183 18.2699 135.183 9.48034 140.6 4.06294C146.023 -1.35431 154.807 -1.35431 160.23 4.06294Z" fill="#FF5C00"/>
<path fill-rule="evenodd" clip-rule="evenodd" d="M130.051 72.1359L137.667 52.5394C138.003 51.6621 138.988 51.2292 139.866 51.5653C140.743 51.9014 141.176 52.8869 140.84 53.7641L132.848 74.3231C132.819 74.4142 132.785 74.5054 132.745 74.5908L131.799 77.0175C131.463 77.8834 131.349 78.7549 131.446 79.6037C131.543 80.4467 131.856 81.2727 132.38 82.0361C132.813 82.6741 133.343 83.1868 133.941 83.5685C134.499 83.9273 135.126 84.1723 135.798 84.2976C136.675 84.366 137.37 85.1008 137.37 86.0009H137.365L137.376 107.722H137.382C137.382 109.209 137.991 110.559 138.971 111.539C139.951 112.519 141.301 113.128 142.788 113.128H148.706V89.2252C148.706 88.2796 149.47 87.5162 150.415 87.5162C151.361 87.5162 152.124 88.2795 152.124 89.2252V113.128H158.043C159.53 113.128 160.88 112.518 161.859 111.539C162.839 110.559 163.449 109.209 163.449 107.722L163.443 86.1219C163.432 85.2902 164.03 84.5497 164.873 84.413V84.4186C165.573 84.3047 166.24 84.037 166.832 83.6496C167.448 83.2452 167.995 82.6983 168.445 82.0432C168.969 81.2742 169.282 80.4539 169.379 79.6108C169.476 78.762 169.362 77.8904 169.026 77.0246L168.08 74.5979C168.04 74.5124 168.006 74.4213 167.977 74.3302L159.985 53.7712C159.649 52.894 160.082 51.9085 160.959 51.5724C161.837 51.2363 162.822 51.6692 163.158 52.5465L170.774 72.143H172.911C173.765 72.143 174.551 71.9721 175.246 71.6417C175.941 71.3113 176.568 70.81 177.103 70.155C177.639 69.4942 178.003 68.7821 178.185 68.0302C178.368 67.2784 178.379 66.4751 178.208 65.6435L178.191 65.5637C175.081 50.4165 171.122 31.1743 155.303 31.1743L145.523 31.1686C129.703 31.1686 125.75 50.4166 122.635 65.558L122.618 65.6378C122.447 66.4694 122.458 67.2726 122.64 68.0245C122.823 68.7765 123.187 69.4942 123.723 70.1493C124.258 70.8044 124.885 71.3056 125.58 71.636C126.275 71.9664 127.061 72.1373 127.915 72.1373L130.051 72.1359Z" fill="#FF5C00"/>
<path fill-rule="evenodd" clip-rule="evenodd" d="M281.268 4.06294C286.685 9.48019 286.685 18.2699 281.268 23.693C275.845 29.1102 267.061 29.1102 261.638 23.693C256.221 18.2699 256.221 9.48034 261.638 4.06294C267.061 -1.35431 275.845 -1.35431 281.268 4.06294Z" fill="#FF5C00"/>
<path fill-rule="evenodd" clip-rule="evenodd" d="M251.089 72.1359L258.705 52.5394C259.041 51.6621 260.026 51.2292 260.904 51.5653C261.781 51.9014 262.214 52.8869 261.878 53.7641L253.886 74.3231C253.857 74.4142 253.823 74.5054 253.783 74.5908L252.837 77.0175C252.501 77.8834 252.387 78.7549 252.484 79.6037C252.581 80.4467 252.894 81.2727 253.418 82.0361C253.851 82.6741 254.381 83.1868 254.979 83.5685C255.537 83.9273 256.164 84.1723 256.836 84.2976C257.713 84.366 258.408 85.1008 258.408 86.0009H258.403L258.414 107.722H258.42C258.42 109.209 259.029 110.559 260.009 111.539C260.989 112.519 262.339 113.128 263.826 113.128H269.744V89.2252C269.744 88.2796 270.508 87.5162 271.453 87.5162C272.399 87.5162 273.162 88.2795 273.162 89.2252V113.128H279.081C280.568 113.128 281.918 112.518 282.897 111.539C283.877 110.559 284.487 109.209 284.487 107.722L284.481 86.1219C284.47 85.2902 285.068 84.5497 285.911 84.413V84.4186C286.611 84.3047 287.278 84.037 287.87 83.6496C288.486 83.2452 289.033 82.6983 289.483 82.0432C290.007 81.2742 290.32 80.4539 290.417 79.6108C290.514 78.762 290.4 77.8904 290.064 77.0246L289.118 74.5979C289.078 74.5124 289.044 74.4213 289.015 74.3302L281.023 53.7712C280.687 52.894 281.12 51.9085 281.997 51.5724C282.875 51.2363 283.86 51.6692 284.196 52.5465L291.812 72.143H293.949C294.803 72.143 295.589 71.9721 296.284 71.6417C296.979 71.3113 297.606 70.81 298.141 70.155C298.677 69.4942 299.041 68.7821 299.223 68.0302C299.406 67.2784 299.417 66.4751 299.246 65.6435L299.229 65.5637C296.119 50.4165 292.16 31.1743 276.341 31.1743L266.561 31.1686C250.741 31.1686 246.788 50.4166 243.673 65.558L243.656 65.6378C243.485 66.4694 243.496 67.2726 243.678 68.0245C243.861 68.7765 244.225 69.4942 244.761 70.1493C245.296 70.8044 245.923 71.3056 246.618 71.636C247.313 71.9664 248.099 72.1373 248.953 72.1373L251.089 72.1359Z" fill="#FF5C00"/>
<path fill-rule="evenodd" clip-rule="evenodd" d="M460.637 4.06294C466.055 9.48019 466.055 18.2699 460.637 23.693C455.214 29.1102 446.43 29.1102 441.007 23.693C435.59 18.2699 435.59 9.48034 441.007 4.06294C446.43 -1.35431 455.214 -1.35431 460.637 4.06294Z" fill="#FF5C00"/>
<path fill-rule="evenodd" clip-rule="evenodd" d="M430.458 72.1359L438.074 52.5394C438.41 51.6621 439.396 51.2292 440.273 51.5653C441.15 51.9014 441.583 52.8869 441.247 53.7641L433.255 74.3231C433.227 74.4142 433.192 74.5054 433.153 74.5908L432.207 77.0175C431.871 77.8834 431.757 78.7549 431.854 79.6037C431.951 80.4467 432.264 81.2727 432.788 82.0361C433.221 82.6741 433.751 83.1868 434.349 83.5685C434.907 83.9273 435.534 84.1723 436.206 84.2976C437.083 84.366 437.778 85.1008 437.778 86.0009H437.772L437.784 107.722H437.789C437.789 109.209 438.399 110.559 439.379 111.539C440.358 112.519 441.708 113.128 443.195 113.128H449.114V89.2252C449.114 88.2796 449.877 87.5162 450.823 87.5162C451.768 87.5162 452.532 88.2795 452.532 89.2252V113.128H458.45C459.937 113.128 461.287 112.518 462.267 111.539C463.247 110.559 463.856 109.209 463.856 107.722L463.851 86.1219C463.839 85.2902 464.437 84.5497 465.28 84.413V84.4186C465.981 84.3047 466.647 84.037 467.24 83.6496C467.855 83.2452 468.402 82.6983 468.852 82.0432C469.376 81.2742 469.689 80.4539 469.786 79.6108C469.883 78.762 469.769 77.8904 469.433 77.0246L468.488 74.5979C468.448 74.5124 468.413 74.4213 468.385 74.3302L460.393 53.7712C460.057 52.894 460.49 51.9085 461.367 51.5724C462.244 51.2363 463.23 51.6692 463.566 52.5465L471.182 72.143H473.318C474.173 72.143 474.959 71.9721 475.654 71.6417C476.349 71.3113 476.975 70.81 477.511 70.155C478.046 69.4942 478.411 68.7821 478.593 68.0302C478.775 67.2784 478.787 66.4751 478.616 65.6435L478.599 65.5637C475.488 50.4165 471.529 31.1743 455.711 31.1743L445.93 31.1686C430.111 31.1686 426.157 50.4166 423.042 65.558L423.025 65.6378C422.854 66.4694 422.866 67.2726 423.048 68.0245C423.23 68.7765 423.595 69.4942 424.13 70.1493C424.666 70.8044 425.292 71.3056 425.987 71.636C426.682 71.9664 427.468 72.1373 428.323 72.1373L430.458 72.1359Z" fill="#FF5C00"/>
<path fill-rule="evenodd" clip-rule="evenodd" d="M524.802 4.06294C530.219 9.48019 530.219 18.2699 524.802 23.693C519.379 29.1102 510.595 29.1102 505.172 23.693C499.755 18.2699 499.755 9.48034 505.172 4.06294C510.595 -1.35431 519.379 -1.35431 524.802 4.06294Z" fill="#FF5C00"/>
<path fill-rule="evenodd" clip-rule="evenodd" d="M494.623 72.1359L502.239 52.5394C502.575 51.6621 503.561 51.2292 504.438 51.5653C505.315 51.9014 505.748 52.8869 505.412 53.7641L497.42 74.3231C497.391 74.4142 497.357 74.5054 497.317 74.5908L496.372 77.0175C496.035 77.8834 495.922 78.7549 496.018 79.6037C496.115 80.4467 496.429 81.2727 496.953 82.0361C497.386 82.6741 497.915 83.1868 498.513 83.5685C499.072 83.9273 499.698 84.1723 500.37 84.2976C501.248 84.366 501.943 85.1008 501.943 86.0009H501.937L501.948 107.722H501.954C501.954 109.209 502.563 110.559 503.543 111.539C504.523 112.519 505.873 113.128 507.36 113.128H513.278V89.2252C513.278 88.2796 514.042 87.5162 514.987 87.5162C515.933 87.5162 516.696 88.2795 516.696 89.2252V113.128H522.615C524.102 113.128 525.452 112.518 526.432 111.539C527.411 110.559 528.021 109.209 528.021 107.722L528.015 86.1219C528.004 85.2902 528.602 84.5497 529.445 84.413V84.4186C530.146 84.3047 530.812 84.037 531.405 83.6496C532.02 83.2452 532.567 82.6983 533.017 82.0432C533.541 81.2742 533.854 80.4539 533.951 79.6108C534.048 78.762 533.934 77.8904 533.598 77.0246L532.652 74.5979C532.612 74.5124 532.578 74.4213 532.55 74.3302L524.558 53.7712C524.221 52.894 524.654 51.9085 525.532 51.5724C526.409 51.2363 527.394 51.6692 527.73 52.5465L535.347 72.143H537.483C538.337 72.143 539.123 71.9721 539.818 71.6417C540.513 71.3113 541.14 70.81 541.675 70.155C542.211 69.4942 542.575 68.7821 542.758 68.0302C542.94 67.2784 542.951 66.4751 542.78 65.6435L542.763 65.5637C539.653 50.4165 535.694 31.1743 519.875 31.1743L510.095 31.1686C494.275 31.1686 490.322 50.4166 487.207 65.558L487.19 65.6378C487.019 66.4694 487.03 67.2726 487.213 68.0245C487.395 68.7765 487.759 69.4942 488.295 70.1493C488.83 70.8044 489.457 71.3056 490.152 71.636C490.847 71.9664 491.633 72.1373 492.488 72.1373L494.623 72.1359Z" fill="#FF5C00"/>
<path fill-rule="evenodd" clip-rule="evenodd" d="M35.1923 4.06731C40.6154 9.48457 40.6154 18.2743 35.1923 23.6915C29.775 29.1146 20.9853 29.1146 15.5681 23.6915C10.145 18.2743 10.145 9.48457 15.5681 4.06731C20.9853 -1.35577 29.775 -1.35577 35.1923 4.06731Z" fill="#FF5C00"/>
<path fill-rule="evenodd" clip-rule="evenodd" d="M50.761 51.6556C50.761 46.0218 48.454 40.9064 44.7399 37.1923C41.0257 33.4782 35.9047 31.1712 30.2766 31.1712H20.4844C14.8506 31.1712 9.73524 33.4782 6.02113 37.1923C2.30701 40.9064 0 46.0275 0 51.6556V66.7343C0 68.2211 0.609521 69.5712 1.58924 70.551C2.56904 71.5308 3.91915 72.1402 5.40588 72.1402H8.93202V63.6069C8.93202 62.6613 9.69535 61.8979 10.641 61.8979C11.5866 61.8979 12.35 62.6613 12.35 63.6069V107.099C12.35 108.825 12.9139 110.374 13.8253 111.479C14.6627 112.493 15.7906 113.12 17.0153 113.12H23.6744V72.9092C23.6744 71.9636 24.4378 71.2002 25.3834 71.2002C26.329 71.2002 27.0924 71.9635 27.0924 72.9092V113.12H33.7515C34.9762 113.12 36.1042 112.493 36.9415 111.479C37.853 110.374 38.4169 108.825 38.4169 107.099V63.6069C38.4169 62.6613 39.1802 61.8979 40.1258 61.8979C41.0715 61.8979 41.8348 62.6613 41.8348 63.6069V72.1402H45.3609C46.8477 72.1402 48.1978 71.5307 49.1776 70.551C50.1574 69.5713 50.7668 68.2211 50.7668 66.7343L50.761 51.6556Z" fill="#FF5C00"/>
<path fill-rule="evenodd" clip-rule="evenodd" d="M220.395 4.06731C225.818 9.48457 225.818 18.2743 220.395 23.6915C214.978 29.1146 206.188 29.1146 200.771 23.6915C195.348 18.2743 195.348 9.48457 200.771 4.06731C206.188 -1.35577 214.978 -1.35577 220.395 4.06731Z" fill="#FF5C00"/>
<path fill-rule="evenodd" clip-rule="evenodd" d="M235.964 51.6556C235.964 46.0218 233.657 40.9064 229.943 37.1923C226.228 33.4782 221.107 31.1712 215.479 31.1712H205.687C200.053 31.1712 194.938 33.4782 191.224 37.1923C187.51 40.9064 185.203 46.0275 185.203 51.6556V66.7343C185.203 68.2211 185.812 69.5712 186.792 70.551C187.772 71.5308 189.122 72.1402 190.609 72.1402H194.135V63.6069C194.135 62.6613 194.898 61.8979 195.844 61.8979C196.789 61.8979 197.553 62.6613 197.553 63.6069V107.099C197.553 108.825 198.117 110.374 199.028 111.479C199.865 112.493 200.993 113.12 202.218 113.12H208.877V72.9092C208.877 71.9636 209.64 71.2002 210.586 71.2002C211.532 71.2002 212.295 71.9635 212.295 72.9092V113.12H218.954C220.179 113.12 221.307 112.493 222.144 111.479C223.056 110.374 223.62 108.825 223.62 107.099V63.6069C223.62 62.6613 224.383 61.8979 225.329 61.8979C226.274 61.8979 227.037 62.6613 227.037 63.6069V72.1402H230.564C232.05 72.1402 233.4 71.5307 234.38 70.551C235.36 69.5713 235.97 68.2211 235.97 66.7343L235.964 51.6556Z" fill="#FF5C00"/>
<path fill-rule="evenodd" clip-rule="evenodd" d="M341.433 4.06731C346.856 9.48457 346.856 18.2743 341.433 23.6915C336.016 29.1146 327.226 29.1146 321.809 23.6915C316.386 18.2743 316.386 9.48457 321.809 4.06731C327.226 -1.35577 336.016 -1.35577 341.433 4.06731Z" fill="#FF5C00"/>
<path fill-rule="evenodd" clip-rule="evenodd" d="M357.002 51.6556C357.002 46.0218 354.695 40.9064 350.981 37.1923C347.266 33.4782 342.145 31.1712 336.517 31.1712H326.725C321.091 31.1712 315.976 33.4782 312.262 37.1923C308.548 40.9064 306.241 46.0275 306.241 51.6556V66.7343C306.241 68.2211 306.85 69.5712 307.83 70.551C308.81 71.5308 310.16 72.1402 311.647 72.1402H315.173V63.6069C315.173 62.6613 315.936 61.8979 316.882 61.8979C317.827 61.8979 318.591 62.6613 318.591 63.6069V107.099C318.591 108.825 319.155 110.374 320.066 111.479C320.903 112.493 322.031 113.12 323.256 113.12H329.915V72.9092C329.915 71.9636 330.678 71.2002 331.624 71.2002C332.57 71.2002 333.333 71.9635 333.333 72.9092V113.12H339.992C341.217 113.12 342.345 112.493 343.182 111.479C344.094 110.374 344.658 108.825 344.658 107.099V63.6069C344.658 62.6613 345.421 61.8979 346.367 61.8979C347.312 61.8979 348.075 62.6613 348.075 63.6069V72.1402H351.602C353.088 72.1402 354.438 71.5307 355.418 70.551C356.398 69.5713 357.007 68.2211 357.007 66.7343L357.002 51.6556Z" fill="#FF5C00"/>
<path fill-rule="evenodd" clip-rule="evenodd" d="M399.764 4.06731C405.188 9.48457 405.188 18.2743 399.764 23.6915C394.347 29.1146 385.558 29.1146 380.14 23.6915C374.717 18.2743 374.717 9.48457 380.14 4.06731C385.558 -1.35577 394.347 -1.35577 399.764 4.06731Z" fill="#FF5C00"/>
<path fill-rule="evenodd" clip-rule="evenodd" d="M415.333 51.6556C415.333 46.0218 413.026 40.9064 409.312 37.1923C405.598 33.4782 400.477 31.1712 394.849 31.1712H385.057C379.423 31.1712 374.307 33.4782 370.593 37.1923C366.879 40.9064 364.572 46.0275 364.572 51.6556V66.7343C364.572 68.2211 365.182 69.5712 366.161 70.551C367.141 71.5308 368.491 72.1402 369.978 72.1402H373.504V63.6069C373.504 62.6613 374.268 61.8979 375.213 61.8979C376.159 61.8979 376.922 62.6613 376.922 63.6069V107.099C376.922 108.825 377.486 110.374 378.398 111.479C379.235 112.493 380.363 113.12 381.588 113.12H388.247V72.9092C388.247 71.9636 389.01 71.2002 389.956 71.2002C390.901 71.2002 391.665 71.9635 391.665 72.9092V113.12H398.324C399.548 113.12 400.676 112.493 401.514 111.479C402.425 110.374 402.989 108.825 402.989 107.099V63.6069C402.989 62.6613 403.752 61.8979 404.698 61.8979C405.644 61.8979 406.407 62.6613 406.407 63.6069V72.1402H409.933C411.42 72.1402 412.77 71.5307 413.75 70.551C414.73 69.5713 415.339 68.2211 415.339 66.7343L415.333 51.6556Z" fill="#FF5C00"/>
<path fill-rule="evenodd" clip-rule="evenodd" d="M586.425 4.06731C591.849 9.48457 591.849 18.2743 586.425 23.6915C581.008 29.1146 572.219 29.1146 566.801 23.6915C561.378 18.2743 561.378 9.48457 566.801 4.06731C572.219 -1.35577 581.008 -1.35577 586.425 4.06731Z" fill="#8B8B8B"/>
<path fill-rule="evenodd" clip-rule="evenodd" d="M601.994 51.6556C601.994 46.0218 599.687 40.9064 595.973 37.1923C592.259 33.4782 587.138 31.1712 581.51 31.1712H571.718C566.084 31.1712 560.968 33.4782 557.254 37.1923C553.54 40.9064 551.233 46.0275 551.233 51.6556V66.7343C551.233 68.2211 551.843 69.5712 552.822 70.551C553.802 71.5308 555.152 72.1402 556.639 72.1402H560.165V63.6069C560.165 62.6613 560.929 61.8979 561.874 61.8979C562.82 61.8979 563.583 62.6613 563.583 63.6069V107.099C563.583 108.825 564.147 110.374 565.058 111.479C565.896 112.493 567.024 113.12 568.248 113.12H574.908V72.9092C574.908 71.9636 575.671 71.2002 576.617 71.2002C577.562 71.2002 578.326 71.9635 578.326 72.9092V113.12H584.985C586.209 113.12 587.337 112.493 588.175 111.479C589.086 110.374 589.65 108.825 589.65 107.099V63.6069C589.65 62.6613 590.413 61.8979 591.359 61.8979C592.305 61.8979 593.068 62.6613 593.068 63.6069V72.1402H596.594C598.081 72.1402 599.431 71.5307 600.411 70.551C601.391 69.5713 602 68.2211 602 66.7343L601.994 51.6556Z" fill="#8B8B8B"/>
</svg>
