<svg width="171" height="177" viewBox="0 0 171 177" fill="none" xmlns="http://www.w3.org/2000/svg">
<path d="M121.653 -24.8662L13.1914 43.7125L36.0607 54.1549L144.523 -14.4238L121.653 -24.8662Z" fill="#FFE600" stroke="black" stroke-linecap="round" stroke-linejoin="round"/>
<path d="M71.5748 -37.2016L-7.85651 63.5839L17.1849 65.8139L96.6162 -34.9716L71.5748 -37.2016Z" fill="#FFE600" stroke="black" stroke-linecap="round" stroke-linejoin="round"/>
<path d="M104.057 153.858L42.152 41.4535L30.3479 63.6506L92.2528 176.055L104.057 153.858Z" fill="#FFE600" stroke="black" stroke-linecap="round" stroke-linejoin="round"/>
<path d="M154.05 132.38L41.584 70.5857L43.4984 95.6533L155.964 157.447L154.05 132.38Z" fill="#FFE600" stroke="black" stroke-linecap="round" stroke-linejoin="round"/>
<path d="M157.042 94.4134L35.9377 51.9774L41.9527 76.3878L163.057 118.824L157.042 94.4134Z" fill="#FFE600" stroke="black" stroke-linecap="round" stroke-linejoin="round"/>
<path d="M147.335 57.8428L24.5938 20.4057L31.6042 44.549L154.346 81.9861L147.335 57.8428Z" fill="#FFE600" stroke="black" stroke-linecap="round" stroke-linejoin="round"/>
<path d="M100.759 21.779L-6.93512 -47.9999L-6.84174 -22.8596L100.852 46.9194L100.759 21.779Z" fill="#FFE600" stroke="black" stroke-linecap="round" stroke-linejoin="round"/>
<path d="M137.592 90.1847L29.8986 20.4057L29.9919 45.5461L137.686 115.325L137.592 90.1847Z" fill="#FFE600" stroke="black" stroke-linecap="round" stroke-linejoin="round"/>
<path d="M79.7107 137.542L-27.983 67.7632L-27.8896 92.9036L79.8041 162.683L79.7107 137.542Z" fill="#FFE600" stroke="black" stroke-linecap="round" stroke-linejoin="round"/>
<path d="M53.4009 137.542L-54.2928 67.7632L-54.1994 92.9036L53.4943 162.683L53.4009 137.542Z" fill="#FFE600" stroke="black" stroke-linecap="round" stroke-linejoin="round"/>
<path d="M58.7947 7.07397L-68.8713 -5.90424L-57.3215 16.4262L70.3445 29.4044L58.7947 7.07397Z" fill="#FFE600" stroke="black" stroke-linecap="round" stroke-linejoin="round"/>
<path d="M64.0566 64.9557L-63.6094 51.9774L-52.0596 74.3079L75.6064 87.2861L64.0566 64.9557Z" fill="#FFE600" stroke="black" stroke-linecap="round" stroke-linejoin="round"/>
<path d="M44.4833 108.645L18.7758 -17.0778L0.909031 0.609032L26.6165 126.332L44.4833 108.645Z" fill="#FFE600" stroke="black" stroke-linecap="round" stroke-linejoin="round"/>
<path d="M-17.9113 111.091L35.5461 -5.56827L10.6839 -1.83722L-42.7734 114.822L-17.9113 111.091Z" fill="#FFE600" stroke="black" stroke-linecap="round" stroke-linejoin="round"/>
<path d="M135.302 118.046L89.3714 -1.77588L74.6392 18.5959L120.57 138.418L135.302 118.046Z" fill="#FFE600" stroke="black" stroke-linecap="round" stroke-linejoin="round"/>
</svg>
