<svg width="441" height="203" viewBox="0 0 441 203" fill="none" xmlns="http://www.w3.org/2000/svg">
<circle cx="341.616" cy="1.70852" r="74.217" transform="rotate(115.145 341.616 1.70852)" fill="#88E99A" stroke="black"/>
<path d="M366.324 15.0094L357.87 11.0409" stroke="black" stroke-linecap="round" stroke-linejoin="round"/>
<path d="M346.374 19.0477L347.164 28.3538" stroke="black" stroke-linecap="round" stroke-linejoin="round"/>
<path d="M333.692 13.0948L326.028 18.4324" stroke="black" stroke-linecap="round" stroke-linejoin="round"/>
<circle cx="296.927" cy="52.9535" r="74.217" transform="rotate(115.145 296.927 52.9535)" fill="#88E99A" stroke="black"/>
<path d="M287.818 50.3808L279.363 46.4123" stroke="black" stroke-linecap="round" stroke-linejoin="round"/>
<path d="M321.636 66.2544L313.181 62.286" stroke="black" stroke-linecap="round" stroke-linejoin="round"/>
<path d="M301.686 70.2927L302.476 79.5988" stroke="black" stroke-linecap="round" stroke-linejoin="round"/>
<path d="M298.523 33.0682L299.314 42.3744" stroke="black" stroke-linecap="round" stroke-linejoin="round"/>
<path d="M289.004 64.3398L281.34 69.6775" stroke="black" stroke-linecap="round" stroke-linejoin="round"/>
<path d="M319.66 42.9892L311.996 48.3269" stroke="black" stroke-linecap="round" stroke-linejoin="round"/>
<circle cx="217.903" cy="67.4472" r="74.217" transform="rotate(115.145 217.903 67.4472)" fill="#88E99A" stroke="black"/>
<path d="M208.794 64.8744L200.339 60.9059" stroke="black" stroke-linecap="round" stroke-linejoin="round"/>
<path d="M242.612 80.7481L234.157 76.7796" stroke="black" stroke-linecap="round" stroke-linejoin="round"/>
<path d="M222.661 84.7863L223.452 94.0924" stroke="black" stroke-linecap="round" stroke-linejoin="round"/>
<path d="M219.499 47.5619L220.29 56.868" stroke="black" stroke-linecap="round" stroke-linejoin="round"/>
<path d="M209.979 78.8334L202.315 84.1711" stroke="black" stroke-linecap="round" stroke-linejoin="round"/>
<path d="M240.636 57.4829L232.972 62.8205" stroke="black" stroke-linecap="round" stroke-linejoin="round"/>
<circle cx="158.721" cy="39.6682" r="74.217" transform="rotate(115.145 158.721 39.6682)" fill="#88E99A" stroke="black"/>
<path d="M149.611 37.0954L141.157 33.127" stroke="black" stroke-linecap="round" stroke-linejoin="round"/>
<path d="M183.43 52.9691L174.975 49.0007" stroke="black" stroke-linecap="round" stroke-linejoin="round"/>
<path d="M163.479 57.0074L164.27 66.3135" stroke="black" stroke-linecap="round" stroke-linejoin="round"/>
<path d="M160.317 19.7829L161.108 29.089" stroke="black" stroke-linecap="round" stroke-linejoin="round"/>
<path d="M150.797 51.0545L143.133 56.3922" stroke="black" stroke-linecap="round" stroke-linejoin="round"/>
<path d="M181.454 29.704L173.789 35.0416" stroke="black" stroke-linecap="round" stroke-linejoin="round"/>
<circle cx="111.444" cy="-13.4751" r="74.217" transform="rotate(115.145 111.444 -13.4751)" fill="#88E99A" stroke="black"/>
<path d="M136.153 -0.174143L127.698 -4.14261" stroke="black" stroke-linecap="round" stroke-linejoin="round"/>
<path d="M116.202 3.86412L116.993 13.1702" stroke="black" stroke-linecap="round" stroke-linejoin="round"/>
<path d="M103.52 -2.08874L95.8564 3.2489" stroke="black" stroke-linecap="round" stroke-linejoin="round"/>
</svg>
