<svg width="766" height="219" viewBox="0 0 766 219" fill="none" xmlns="http://www.w3.org/2000/svg">
<rect x="0.5" y="21.5" width="242" height="181" rx="6.5" fill="#EFEFEF" stroke="black"/>
<g filter="url(#filter0_i_25_2)">
<rect x="12" y="100" width="150" height="91" rx="8" fill="#D9D9D9"/>
</g>
<rect x="12.5" y="100.5" width="149" height="90" rx="7.5" stroke="black"/>
<g filter="url(#filter1_i_25_2)">
<ellipse cx="40.5" cy="62" rx="28.5" ry="29" fill="#D9D9D9"/>
</g>
<path d="M68.5 62C68.5 77.7483 55.9558 90.5 40.5 90.5C25.0442 90.5 12.5 77.7483 12.5 62C12.5 46.2517 25.0442 33.5 40.5 33.5C55.9558 33.5 68.5 46.2517 68.5 62Z" stroke="black"/>
<g filter="url(#filter2_i_25_2)">
<circle cx="121" cy="62" r="29" fill="#D9D9D9"/>
</g>
<circle cx="121" cy="62" r="28.5" stroke="black"/>
<g filter="url(#filter3_i_25_2)">
<circle cx="201" cy="62" r="29" fill="#D9D9D9"/>
</g>
<circle cx="201" cy="62" r="28.5" stroke="black"/>
<g filter="url(#filter4_i_25_2)">
<rect x="175" y="100" width="55" height="91" rx="8" fill="#D9D9D9"/>
</g>
<rect x="175.5" y="100.5" width="54" height="90" rx="7.5" stroke="black"/>
<circle cx="443.887" cy="35.3223" r="26.5806" fill="#565656" stroke="black"/>
<g filter="url(#filter5_i_25_2)">
<circle cx="443.887" cy="35.3225" r="24.7258" fill="#D9D9D9"/>
</g>
<circle cx="443.887" cy="35.3225" r="24.2258" stroke="black"/>
<circle cx="349.105" cy="32.379" r="31.879" fill="#FF8800" stroke="black"/>
<g filter="url(#filter6_i_25_2)">
<circle cx="349.105" cy="32.3788" r="24.1371" fill="#FF8800"/>
</g>
<circle cx="349.105" cy="32.3788" r="23.6371" stroke="black"/>
<circle cx="396.79" cy="147.178" r="71.3226" fill="#FF8800" stroke="black"/>
<g filter="url(#filter7_i_25_2)">
<circle cx="396.79" cy="147.177" r="64.7581" fill="#FF8800"/>
</g>
<circle cx="396.79" cy="147.177" r="64.2581" stroke="black"/>
<mask id="path-21-inside-1_25_2" fill="white">
<path fill-rule="evenodd" clip-rule="evenodd" d="M621.677 64.3686C631.737 62.4424 639.339 53.5967 639.339 42.9756C639.339 30.9456 629.586 21.1934 617.556 21.1934C605.526 21.1934 595.774 30.9456 595.774 42.9756C595.774 53.5967 603.376 62.4424 613.435 64.3686V166.048C613.435 167.981 615.002 169.548 616.935 169.548H618.177C620.11 169.548 621.677 167.981 621.677 166.048V64.3686Z"/>
</mask>
<g filter="url(#filter8_i_25_2)">
<path fill-rule="evenodd" clip-rule="evenodd" d="M621.677 64.3686C631.737 62.4424 639.339 53.5967 639.339 42.9756C639.339 30.9456 629.586 21.1934 617.556 21.1934C605.526 21.1934 595.774 30.9456 595.774 42.9756C595.774 53.5967 603.376 62.4424 613.435 64.3686V166.048C613.435 167.981 615.002 169.548 616.935 169.548H618.177C620.11 169.548 621.677 167.981 621.677 166.048V64.3686Z" fill="#D9D9D9"/>
</g>
<path d="M621.677 64.3686L621.489 63.3864L620.677 63.5419V64.3686H621.677ZM613.435 64.3686H614.435V63.5419L613.624 63.3864L613.435 64.3686ZM638.339 42.9756C638.339 53.108 631.087 61.5487 621.489 63.3864L621.865 65.3508C632.387 63.336 640.339 54.0854 640.339 42.9756H638.339ZM617.556 22.1934C629.034 22.1934 638.339 31.4979 638.339 42.9756H640.339C640.339 30.3933 630.139 20.1934 617.556 20.1934V22.1934ZM596.774 42.9756C596.774 31.4979 606.079 22.1934 617.556 22.1934V20.1934C604.974 20.1934 594.774 30.3933 594.774 42.9756H596.774ZM613.624 63.3864C604.026 61.5487 596.774 53.108 596.774 42.9756H594.774C594.774 54.0854 602.725 63.336 613.247 65.3508L613.624 63.3864ZM614.435 166.048V64.3686H612.435V166.048H614.435ZM616.935 168.548C615.555 168.548 614.435 167.429 614.435 166.048H612.435C612.435 168.533 614.45 170.548 616.935 170.548V168.548ZM618.177 168.548H616.935V170.548H618.177V168.548ZM620.677 166.048C620.677 167.429 619.558 168.548 618.177 168.548V170.548C620.663 170.548 622.677 168.533 622.677 166.048H620.677ZM620.677 64.3686V166.048H622.677V64.3686H620.677Z" fill="black" mask="url(#path-21-inside-1_25_2)"/>
<mask id="path-23-inside-2_25_2" fill="white">
<path fill-rule="evenodd" clip-rule="evenodd" d="M673.484 64.9573C683.543 63.031 691.145 54.1854 691.145 43.5643C691.145 31.5343 677.605 13.5401 669.363 8.2417C659.944 15.8949 647.581 31.5343 647.581 43.5643C647.581 54.1854 655.182 63.031 665.242 64.9573V166.637C665.242 168.57 666.809 170.137 668.742 170.137H669.984C671.917 170.137 673.484 168.57 673.484 166.637V64.9573Z"/>
</mask>
<g filter="url(#filter9_i_25_2)">
<path fill-rule="evenodd" clip-rule="evenodd" d="M673.484 64.9573C683.543 63.031 691.145 54.1854 691.145 43.5643C691.145 31.5343 677.605 13.5401 669.363 8.2417C659.944 15.8949 647.581 31.5343 647.581 43.5643C647.581 54.1854 655.182 63.031 665.242 64.9573V166.637C665.242 168.57 666.809 170.137 668.742 170.137H669.984C671.917 170.137 673.484 168.57 673.484 166.637V64.9573Z" fill="#D9D9D9"/>
</g>
<path d="M673.484 64.9573L673.296 63.9751L672.484 64.1306V64.9573H673.484ZM669.363 8.2417L669.904 7.40052L669.294 7.00887L668.732 7.46559L669.363 8.2417ZM665.242 64.9573H666.242V64.1306L665.43 63.9751L665.242 64.9573ZM690.145 43.5643C690.145 53.6967 682.893 62.1374 673.296 63.9751L673.672 65.9394C684.194 63.9246 692.145 54.6741 692.145 43.5643H690.145ZM668.822 9.08288C672.781 11.6276 678.135 17.3256 682.511 23.9309C686.899 30.5537 690.145 37.8535 690.145 43.5643H692.145C692.145 37.2451 688.621 29.5328 684.178 22.8263C679.724 16.1025 674.187 10.1542 669.904 7.40052L668.822 9.08288ZM648.581 43.5643C648.581 37.8483 651.538 31.1346 655.77 24.8183C659.984 18.5293 665.362 12.7805 669.993 9.01781L668.732 7.46559C663.944 11.3561 658.431 17.2536 654.109 23.7051C649.804 30.1293 646.581 37.2502 646.581 43.5643H648.581ZM665.43 63.9751C655.833 62.1374 648.581 53.6967 648.581 43.5643H646.581C646.581 54.6741 654.532 63.9246 665.054 65.9394L665.43 63.9751ZM666.242 166.637V64.9573H664.242V166.637H666.242ZM668.742 169.137C667.361 169.137 666.242 168.018 666.242 166.637H664.242C664.242 169.122 666.257 171.137 668.742 171.137V169.137ZM669.984 169.137H668.742V171.137H669.984V169.137ZM672.484 166.637C672.484 168.018 671.365 169.137 669.984 169.137V171.137C672.469 171.137 674.484 169.122 674.484 166.637H672.484ZM672.484 64.9573V166.637H674.484V64.9573H672.484Z" fill="black" mask="url(#path-23-inside-2_25_2)"/>
<mask id="path-25-inside-3_25_2" fill="white">
<path fill-rule="evenodd" clip-rule="evenodd" d="M718.752 80.1742C718.452 79.0074 718.14 77.791 717.831 76.5325C715.431 66.7432 713.533 62.9922 708.235 54.1616C705.88 64.1696 705.835 69.098 708.235 78.8874C709.687 84.8104 711.045 89.844 713.011 92.6219L731.177 161.479V166.048C731.177 167.981 732.744 169.548 734.677 169.548H738.274C740.207 169.548 741.774 167.981 741.774 166.048V159.159L759.113 94.4476C760.778 91.5535 762.009 86.9449 763.315 81.6165C765.715 71.8271 765.67 66.8987 763.315 56.8907C758.017 65.7213 756.118 69.4723 753.719 79.2616C753.41 80.52 753.097 81.7361 752.798 82.9028L752.797 82.9033L752.797 82.9033C751.687 87.2219 750.751 90.8624 750.847 93.4536L736.188 148.162L720.893 90.1885C720.84 89.9882 720.77 89.7965 720.687 89.6146C720.542 87.1345 719.712 83.9077 718.752 80.1742Z"/>
</mask>
<g filter="url(#filter10_i_25_2)">
<path fill-rule="evenodd" clip-rule="evenodd" d="M718.752 80.1742C718.452 79.0074 718.14 77.791 717.831 76.5325C715.431 66.7432 713.533 62.9922 708.235 54.1616C705.88 64.1696 705.835 69.098 708.235 78.8874C709.687 84.8104 711.045 89.844 713.011 92.6219L731.177 161.479V166.048C731.177 167.981 732.744 169.548 734.677 169.548H738.274C740.207 169.548 741.774 167.981 741.774 166.048V159.159L759.113 94.4476C760.778 91.5535 762.009 86.9449 763.315 81.6165C765.715 71.8271 765.67 66.8987 763.315 56.8907C758.017 65.7213 756.118 69.4723 753.719 79.2616C753.41 80.52 753.097 81.7361 752.798 82.9028L752.797 82.9033L752.797 82.9033C751.687 87.2219 750.751 90.8624 750.847 93.4536L736.188 148.162L720.893 90.1885C720.84 89.9882 720.77 89.7965 720.687 89.6146C720.542 87.1345 719.712 83.9077 718.752 80.1742Z" fill="#D9D9D9"/>
</g>
<path d="M717.831 76.5325L718.802 76.2945L718.802 76.2945L717.831 76.5325ZM718.752 80.1742L719.721 79.9252L719.721 79.9252L718.752 80.1742ZM708.235 54.1616L709.092 53.6471L707.825 51.5356L707.261 53.9326L708.235 54.1616ZM708.235 78.8874L709.206 78.6493L709.206 78.6493L708.235 78.8874ZM713.011 92.6219L713.977 92.3668L713.931 92.1919L713.827 92.0443L713.011 92.6219ZM731.177 161.479H732.177V161.349L732.144 161.224L731.177 161.479ZM741.774 159.159L740.808 158.9L740.774 159.027V159.159H741.774ZM759.113 94.4476L758.247 93.9489L758.181 94.0623L758.148 94.1887L759.113 94.4476ZM763.315 81.6165L764.286 81.8546L764.286 81.8546L763.315 81.6165ZM763.315 56.8907L764.288 56.6617L763.724 54.2647L762.458 56.3762L763.315 56.8907ZM753.719 79.2616L754.69 79.4997L754.69 79.4997L753.719 79.2616ZM752.798 82.9028L751.829 82.6538L751.829 82.655L752.798 82.9028ZM752.797 82.9033L753.726 83.2747L753.75 83.2142L753.766 83.1511L752.797 82.9033ZM752.797 82.9033L751.869 82.5319L751.845 82.5918L751.829 82.6543L752.797 82.9033ZM750.847 93.4536L751.813 93.7124L751.852 93.5671L751.846 93.4167L750.847 93.4536ZM736.188 148.162L735.221 148.417L736.181 152.054L737.154 148.421L736.188 148.162ZM720.893 90.1885L721.859 89.9333L721.859 89.9333L720.893 90.1885ZM720.687 89.6146L719.689 89.6731L719.7 89.8613L719.778 90.0325L720.687 89.6146ZM716.86 76.7706C717.17 78.0354 717.484 79.2571 717.784 80.4232L719.721 79.9252C719.421 78.7577 719.109 77.5467 718.802 76.2945L716.86 76.7706ZM707.377 54.6761C712.642 63.4509 714.491 67.1076 716.86 76.7706L718.802 76.2945C716.372 66.3787 714.424 62.5335 709.092 53.6471L707.377 54.6761ZM709.206 78.6493C708.015 73.7922 707.446 70.2007 707.452 66.608C707.457 63.0128 708.038 59.3643 709.208 54.3907L707.261 53.9326C706.077 58.967 705.457 62.7867 705.452 66.605C705.446 70.4258 706.054 74.1932 707.263 79.1255L709.206 78.6493ZM713.827 92.0443C712.932 90.7799 712.138 88.942 711.38 86.6234C710.627 84.3171 709.932 81.6109 709.206 78.6493L707.263 79.1255C707.989 82.0869 708.7 84.859 709.479 87.2447C710.255 89.6182 711.123 91.686 712.194 93.1995L713.827 92.0443ZM732.144 161.224L713.977 92.3668L712.044 92.877L730.211 161.734L732.144 161.224ZM732.177 166.048V161.479H730.177V166.048H732.177ZM734.677 168.548C733.297 168.548 732.177 167.429 732.177 166.048H730.177C730.177 168.534 732.192 170.548 734.677 170.548V168.548ZM738.274 168.548H734.677V170.548H738.274V168.548ZM740.774 166.048C740.774 167.429 739.655 168.548 738.274 168.548V170.548C740.76 170.548 742.774 168.534 742.774 166.048H740.774ZM740.774 159.159V166.048H742.774V159.159H740.774ZM758.148 94.1887L740.808 158.9L742.74 159.417L760.079 94.7064L758.148 94.1887ZM762.344 81.3784C761.028 86.748 759.826 91.2029 758.247 93.9489L759.98 94.9462C761.73 91.9041 762.99 87.1417 764.286 81.8546L762.344 81.3784ZM762.342 57.1198C763.512 62.0934 764.093 65.7419 764.098 69.3371C764.103 72.9298 763.534 76.5213 762.344 81.3784L764.286 81.8546C765.495 76.9223 766.104 73.1549 766.098 69.3341C766.092 65.5158 765.473 61.6961 764.288 56.6617L762.342 57.1198ZM754.69 79.4997C757.058 69.8368 758.908 66.18 764.173 57.4052L762.458 56.3762C757.126 65.2626 755.178 69.1078 752.747 79.0236L754.69 79.4997ZM753.766 83.1518C754.066 81.9858 754.38 80.7643 754.69 79.4997L752.747 79.0236C752.44 80.2756 752.129 81.4864 751.829 82.6538L753.766 83.1518ZM753.766 83.1511L753.766 83.1506L751.829 82.655L751.829 82.6555L753.766 83.1511ZM753.726 83.2747L753.726 83.2747L751.869 82.5319L751.869 82.5319L753.726 83.2747ZM751.846 93.4167C751.803 92.2414 751.994 90.7763 752.35 89.0255C752.705 87.2817 753.209 85.3185 753.766 83.1523L751.829 82.6543C751.276 84.8067 750.757 86.823 750.39 88.6269C750.025 90.4238 749.796 92.0746 749.848 93.4905L751.846 93.4167ZM737.154 148.421L751.813 93.7124L749.881 93.1948L735.222 147.903L737.154 148.421ZM719.926 90.4436L735.221 148.417L737.155 147.907L721.859 89.9333L719.926 90.4436ZM719.778 90.0325C719.838 90.1622 719.888 90.2994 719.926 90.4436L721.859 89.9333C721.792 89.6769 721.703 89.4309 721.595 89.1967L719.778 90.0325ZM717.784 80.4232C718.754 84.1957 719.55 87.3125 719.689 89.6731L721.685 89.5561C721.533 86.9565 720.67 83.6197 719.721 79.9252L717.784 80.4232Z" fill="black" mask="url(#path-25-inside-3_25_2)"/>
<defs>
<filter id="filter0_i_25_2" x="12" y="100" width="154" height="95" filterUnits="userSpaceOnUse" color-interpolation-filters="sRGB">
<feFlood flood-opacity="0" result="BackgroundImageFix"/>
<feBlend mode="normal" in="SourceGraphic" in2="BackgroundImageFix" result="shape"/>
<feColorMatrix in="SourceAlpha" type="matrix" values="0 0 0 0 0 0 0 0 0 0 0 0 0 0 0 0 0 0 127 0" result="hardAlpha"/>
<feOffset dx="4" dy="4"/>
<feGaussianBlur stdDeviation="2"/>
<feComposite in2="hardAlpha" operator="arithmetic" k2="-1" k3="1"/>
<feColorMatrix type="matrix" values="0 0 0 0 0 0 0 0 0 0 0 0 0 0 0 0 0 0 0.25 0"/>
<feBlend mode="normal" in2="shape" result="effect1_innerShadow_25_2"/>
</filter>
<filter id="filter1_i_25_2" x="12" y="33" width="61" height="62" filterUnits="userSpaceOnUse" color-interpolation-filters="sRGB">
<feFlood flood-opacity="0" result="BackgroundImageFix"/>
<feBlend mode="normal" in="SourceGraphic" in2="BackgroundImageFix" result="shape"/>
<feColorMatrix in="SourceAlpha" type="matrix" values="0 0 0 0 0 0 0 0 0 0 0 0 0 0 0 0 0 0 127 0" result="hardAlpha"/>
<feOffset dx="4" dy="4"/>
<feGaussianBlur stdDeviation="2"/>
<feComposite in2="hardAlpha" operator="arithmetic" k2="-1" k3="1"/>
<feColorMatrix type="matrix" values="0 0 0 0 0 0 0 0 0 0 0 0 0 0 0 0 0 0 0.25 0"/>
<feBlend mode="normal" in2="shape" result="effect1_innerShadow_25_2"/>
</filter>
<filter id="filter2_i_25_2" x="92" y="33" width="62" height="62" filterUnits="userSpaceOnUse" color-interpolation-filters="sRGB">
<feFlood flood-opacity="0" result="BackgroundImageFix"/>
<feBlend mode="normal" in="SourceGraphic" in2="BackgroundImageFix" result="shape"/>
<feColorMatrix in="SourceAlpha" type="matrix" values="0 0 0 0 0 0 0 0 0 0 0 0 0 0 0 0 0 0 127 0" result="hardAlpha"/>
<feOffset dx="4" dy="4"/>
<feGaussianBlur stdDeviation="2"/>
<feComposite in2="hardAlpha" operator="arithmetic" k2="-1" k3="1"/>
<feColorMatrix type="matrix" values="0 0 0 0 0 0 0 0 0 0 0 0 0 0 0 0 0 0 0.25 0"/>
<feBlend mode="normal" in2="shape" result="effect1_innerShadow_25_2"/>
</filter>
<filter id="filter3_i_25_2" x="172" y="33" width="62" height="62" filterUnits="userSpaceOnUse" color-interpolation-filters="sRGB">
<feFlood flood-opacity="0" result="BackgroundImageFix"/>
<feBlend mode="normal" in="SourceGraphic" in2="BackgroundImageFix" result="shape"/>
<feColorMatrix in="SourceAlpha" type="matrix" values="0 0 0 0 0 0 0 0 0 0 0 0 0 0 0 0 0 0 127 0" result="hardAlpha"/>
<feOffset dx="4" dy="4"/>
<feGaussianBlur stdDeviation="2"/>
<feComposite in2="hardAlpha" operator="arithmetic" k2="-1" k3="1"/>
<feColorMatrix type="matrix" values="0 0 0 0 0 0 0 0 0 0 0 0 0 0 0 0 0 0 0.25 0"/>
<feBlend mode="normal" in2="shape" result="effect1_innerShadow_25_2"/>
</filter>
<filter id="filter4_i_25_2" x="175" y="100" width="59" height="95" filterUnits="userSpaceOnUse" color-interpolation-filters="sRGB">
<feFlood flood-opacity="0" result="BackgroundImageFix"/>
<feBlend mode="normal" in="SourceGraphic" in2="BackgroundImageFix" result="shape"/>
<feColorMatrix in="SourceAlpha" type="matrix" values="0 0 0 0 0 0 0 0 0 0 0 0 0 0 0 0 0 0 127 0" result="hardAlpha"/>
<feOffset dx="4" dy="4"/>
<feGaussianBlur stdDeviation="2"/>
<feComposite in2="hardAlpha" operator="arithmetic" k2="-1" k3="1"/>
<feColorMatrix type="matrix" values="0 0 0 0 0 0 0 0 0 0 0 0 0 0 0 0 0 0 0.25 0"/>
<feBlend mode="normal" in2="shape" result="effect1_innerShadow_25_2"/>
</filter>
<filter id="filter5_i_25_2" x="419.161" y="10.5967" width="49.4516" height="53.4517" filterUnits="userSpaceOnUse" color-interpolation-filters="sRGB">
<feFlood flood-opacity="0" result="BackgroundImageFix"/>
<feBlend mode="normal" in="SourceGraphic" in2="BackgroundImageFix" result="shape"/>
<feColorMatrix in="SourceAlpha" type="matrix" values="0 0 0 0 0 0 0 0 0 0 0 0 0 0 0 0 0 0 127 0" result="hardAlpha"/>
<feOffset dy="4"/>
<feGaussianBlur stdDeviation="2"/>
<feComposite in2="hardAlpha" operator="arithmetic" k2="-1" k3="1"/>
<feColorMatrix type="matrix" values="0 0 0 0 0 0 0 0 0 0 0 0 0 0 0 0 0 0 0.25 0"/>
<feBlend mode="normal" in2="shape" result="effect1_innerShadow_25_2"/>
</filter>
<filter id="filter6_i_25_2" x="324.968" y="8.2417" width="48.2742" height="52.2744" filterUnits="userSpaceOnUse" color-interpolation-filters="sRGB">
<feFlood flood-opacity="0" result="BackgroundImageFix"/>
<feBlend mode="normal" in="SourceGraphic" in2="BackgroundImageFix" result="shape"/>
<feColorMatrix in="SourceAlpha" type="matrix" values="0 0 0 0 0 0 0 0 0 0 0 0 0 0 0 0 0 0 127 0" result="hardAlpha"/>
<feOffset dy="4"/>
<feGaussianBlur stdDeviation="2"/>
<feComposite in2="hardAlpha" operator="arithmetic" k2="-1" k3="1"/>
<feColorMatrix type="matrix" values="0 0 0 0 0 0 0 0 0 0 0 0 0 0 0 0 0 0 0.25 0"/>
<feBlend mode="normal" in2="shape" result="effect1_innerShadow_25_2"/>
</filter>
<filter id="filter7_i_25_2" x="332.032" y="82.4194" width="129.516" height="133.516" filterUnits="userSpaceOnUse" color-interpolation-filters="sRGB">
<feFlood flood-opacity="0" result="BackgroundImageFix"/>
<feBlend mode="normal" in="SourceGraphic" in2="BackgroundImageFix" result="shape"/>
<feColorMatrix in="SourceAlpha" type="matrix" values="0 0 0 0 0 0 0 0 0 0 0 0 0 0 0 0 0 0 127 0" result="hardAlpha"/>
<feOffset dy="4"/>
<feGaussianBlur stdDeviation="2"/>
<feComposite in2="hardAlpha" operator="arithmetic" k2="-1" k3="1"/>
<feColorMatrix type="matrix" values="0 0 0 0 0 0 0 0 0 0 0 0 0 0 0 0 0 0 0.25 0"/>
<feBlend mode="normal" in2="shape" result="effect1_innerShadow_25_2"/>
</filter>
<filter id="filter8_i_25_2" x="595.774" y="21.1934" width="43.5645" height="152.355" filterUnits="userSpaceOnUse" color-interpolation-filters="sRGB">
<feFlood flood-opacity="0" result="BackgroundImageFix"/>
<feBlend mode="normal" in="SourceGraphic" in2="BackgroundImageFix" result="shape"/>
<feColorMatrix in="SourceAlpha" type="matrix" values="0 0 0 0 0 0 0 0 0 0 0 0 0 0 0 0 0 0 127 0" result="hardAlpha"/>
<feOffset dy="4"/>
<feGaussianBlur stdDeviation="2"/>
<feComposite in2="hardAlpha" operator="arithmetic" k2="-1" k3="1"/>
<feColorMatrix type="matrix" values="0 0 0 0 0 0 0 0 0 0 0 0 0 0 0 0 0 0 0.25 0"/>
<feBlend mode="normal" in2="shape" result="effect1_innerShadow_25_2"/>
</filter>
<filter id="filter9_i_25_2" x="647.581" y="8.2417" width="43.5645" height="165.895" filterUnits="userSpaceOnUse" color-interpolation-filters="sRGB">
<feFlood flood-opacity="0" result="BackgroundImageFix"/>
<feBlend mode="normal" in="SourceGraphic" in2="BackgroundImageFix" result="shape"/>
<feColorMatrix in="SourceAlpha" type="matrix" values="0 0 0 0 0 0 0 0 0 0 0 0 0 0 0 0 0 0 127 0" result="hardAlpha"/>
<feOffset dy="4"/>
<feGaussianBlur stdDeviation="2"/>
<feComposite in2="hardAlpha" operator="arithmetic" k2="-1" k3="1"/>
<feColorMatrix type="matrix" values="0 0 0 0 0 0 0 0 0 0 0 0 0 0 0 0 0 0 0.25 0"/>
<feBlend mode="normal" in2="shape" result="effect1_innerShadow_25_2"/>
</filter>
<filter id="filter10_i_25_2" x="706.452" y="54.1616" width="58.6464" height="119.387" filterUnits="userSpaceOnUse" color-interpolation-filters="sRGB">
<feFlood flood-opacity="0" result="BackgroundImageFix"/>
<feBlend mode="normal" in="SourceGraphic" in2="BackgroundImageFix" result="shape"/>
<feColorMatrix in="SourceAlpha" type="matrix" values="0 0 0 0 0 0 0 0 0 0 0 0 0 0 0 0 0 0 127 0" result="hardAlpha"/>
<feOffset dy="4"/>
<feGaussianBlur stdDeviation="2"/>
<feComposite in2="hardAlpha" operator="arithmetic" k2="-1" k3="1"/>
<feColorMatrix type="matrix" values="0 0 0 0 0 0 0 0 0 0 0 0 0 0 0 0 0 0 0.25 0"/>
<feBlend mode="normal" in2="shape" result="effect1_innerShadow_25_2"/>
</filter>
</defs>
</svg>
